# xmcd CD database file
#
# Track frame offsets:
#	150
#	16907
#	35830
#	54000
#	73380
#	95645
#	120107
#	141537
#	159907
#	179737
#	199897
#	220822
#	241617
#	262852
#	284692
#
# Disc length: 4169 seconds
#
# Revision: 5
# Processed by: cddbd v1.5PL3 Copyright (c) Steve Scherf et al.
# Submitted via: CDex 1.50Beta7
#
DISCID=db10470f
DTITLE=Various Artist - ときめきメモリアル2 ボーカルトラックスベスト
DYEAR=2002
DGENRE=Soundtrack
TTITLE0=野田順子 - 勇気の神様〜Hikari Version〜
TTITLE1=田村ゆかり - Super Special Day
TTITLE2=くまいもとこ - Blue Marine Blue
TTITLE3=前田千亜紀 - Twilight Express
TTITLE4=高野直子 - 未来星
TTITLE5=小菅真美 - 透明な心
TTITLE6=鳥井美沙 - 嵐が始まる時
TTITLE7=本井えみ - 雲を追いかけて〜tears for joy〜
TTITLE8=野村真弓 - サバンナの風
TTITLE9=山田美穂 - Show me how to love
TTITLE10=橘ひかり - Garden
TTITLE11=村井かずさ - 春のフリル
TTITLE12=Hibikino Happy Bells - Ringings go on forever
TTITLE13=野島健児＆増田ゆき - 向日葵
TTITLE14=野田順子 - あなたに会えて
EXTD=YEAR: 2002
EXTT0=
EXTT1=
EXTT2=
EXTT3=
EXTT4=
EXTT5=
EXTT6=
EXTT7=
EXTT8=
EXTT9=
EXTT10=
EXTT11=
EXTT12=
EXTT13=
EXTT14=
PLAYORDER=
